[center][img]http://img819.imageshack.us/img819/7180/aur7n9png.jpg[/img]



[img]http://leetleech.org/images/48874973695367351744.png[/img]


Format                           : AVI
Format/Info                      : Audio Video Interleave
File size                        : 1.28 GiB
Duration                         : 1h 44mn
Overall bit rate                 : 1 750 Kbps
Writing application              : VirtualDubMod 1.5.10.3 | www.virtualdub-fr.org || (build 2550/release)
Writing library                  : VirtualDubMod build 2550/release

Video
ID                               : 0
Format                           : MPEG-4 Visual
Format profile                   : Advanced Simple@L5
Format settings, BVOP            : Yes
Format settings, QPel            : No
Format settings, GMC             : No warppoints
Format settings, Matrix          : Custom
Codec ID                         : XVID
Codec ID/Hint                    : XviD
Duration                         : 1h 44mn
Bit rate                         : 1 611 Kbps
Width                            : 632 pixels
Height                           : 420 pixels
Display aspect ratio             : 3:2
Frame rate                       : 29.970 fps
Color space                      : YUV
Chroma subsampling               : 4:2:0
Bit depth                        : 8 bits
Scan type                        : Progressive
Bits/(Pixel*Frame)               : 0.202
Stream size                      : 1.18 GiB (92%)
Writing library                  : XviD 1.2.1 (UTC 2008-12-04)

Audio
ID                               : 1
Format                           : MPEG Audio
Format version                   : Version 1
Format profile                   : Layer 3
Mode                             : Joint stereo
Mode extension                   : MS Stereo
Codec ID                         : 55
Codec ID/Hint                    : MP3
Duration                         : 1h 44mn
Bit rate mode                    : Constant
Bit rate                         : 128 Kbps
Channel(s)                       : 2 channels
Sampling rate                    : 44.1 KHz
Stream size                      : 95.7 MiB (7%)
Alignment                        : Split accross interleaves
Interleave, duration             : 33 ms (1.00 video frame)
Interleave, preload duration     : 500 ms
Writing library                  : LAME3.98.2




[url]http://www.imdb.com/title/tt0480687/[/url]




[IMG]http://leetleech.org/images/89524873606771859129.png[/IMG]


Users: 6.1/10 (5,630 votes) 43 reviews | Critics: 157 reviews Metascore: 45/100 (based on 36 reviews from Metacritic.com)

A married man is granted the opportunity to have an affair by his wife. Joined in the fun by his best pal, things get a little out of control when both wives start engaging in extramarital activities as well.
Directors:
Bobby Farrelly, Peter Farrelly
Writers:
Pete Jones (screenplay), Peter Farrelly (screenplay), and 3 more credits »
Stars:
Owen Wilson, Jason Sudeikis and Christina Applegate 



[img]http://leetleech.org/images/95521316153253938506.png[/img]




[img]http://img819.imageshack.us/img819/5143/vlcsnap2011050917h49m38.png[/img]

[img]http://img685.imageshack.us/img685/8043/vlcsnap2011050917h41m05.png[/img]

[img]http://img16.imageshack.us/img16/6893/vlcsnap2011050917h50m50.png[/img]


Source 


IFLiX .................... Thanks

Few filters its watchable for now saturation levels lowered rgb colours changed ..slight denoise ..contrast changed 

Enjoy


Greetz to Imagine ,Flawl3ss,DiLLoN,BDK,NOiR,TOXiCiNK,THC,Ez,Rx,Boobyblue,TaRiQ786,LKRG